<?xml version="1.0" standalone="no"?>
<!DOCTYPE svg PUBLIC "-//W3C//DTD SVG 20010904//EN"
 "http://www.w3.org/TR/2001/REC-SVG-20010904/DTD/svg10.dtd">
<svg version="1.0" xmlns="http://www.w3.org/2000/svg"
 width="400.000000pt" height="400.000000pt" viewBox="0 0 400.000000 400.000000"
 preserveAspectRatio="xMidYMid meet">

<g transform="translate(0.000000,400.000000) scale(0.100000,-0.100000)"
fill="#000000" stroke="none">
<path d="M2014 3169 c-115 -88 -218 -166 -229 -172 -11 -6 -325 -146 -698
-312 -373 -167 -679 -306 -679 -311 -1 -5 35 -38 81 -73 l82 -63 -78 -47 -78
-47 0 -375 0 -374 595 -348 c327 -191 611 -356 630 -367 l36 -18 954 552 955
552 5 319 c3 176 3 344 0 374 l-5 55 -74 44 c-66 41 -72 46 -56 58 10 7 15 19
13 26 -3 7 -177 108 -387 223 -291 160 -414 234 -519 311 -125 92 -139 100
-164 92 -23 -8 -38 -4 -93 26 -36 20 -69 36 -73 36 -5 0 -102 -72 -218 -161z
m871 -229 c292 -160 533 -295 537 -299 4 -4 -295 -238 -664 -521 -370 -283
-709 -543 -755 -578 l-82 -63 -595 328 c-328 180 -596 331 -596 335 0 3 338
265 752 582 l752 576 60 -34 c34 -19 300 -165 591 -326z m-450 290 c3 -6 -1
-7 -9 -4 -18 7 -21 14 -7 14 6 0 13 -4 16 -10z m-776 -333 c-80 -66 -940 -717
-946 -717 -12 0 -259 180 -256 187 1 3 271 126 600 273 511 228 628 278 602
257z m1818 -353 c46 -26 61 -39 51 -45 -7 -5 -18 -9 -24 -9 -14 0 -104 70
-104 81 0 14 8 11 77 -27z m-13 -69 l89 -64 -44 -19 c-24 -11 -161 -72 -305
-136 -212 -95 -269 -116 -307 -116 -26 0 -47 3 -46 8 0 10 501 391 514 392 6
0 50 -29 99 -65z m96 -15 c0 -5 -4 -10 -9 -10 -6 0 -13 5 -16 10 -3 6 1 10 9
10 9 0 16 -4 16 -10z m0 -119 c0 -33 -11 -40 -387 -256 -95 -55 -173 -105
-173 -112 0 -7 3 -13 8 -13 4 0 128 70 276 155 147 85 269 155 272 155 2 0 4
-76 4 -168 l0 -169 -928 -536 c-511 -296 -932 -537 -935 -537 -4 0 -7 75 -7
168 l0 167 235 135 c129 74 235 138 235 142 0 22 -33 8 -186 -80 -93 -54 -195
-113 -226 -131 l-58 -32 0 84 c0 80 1 86 26 101 24 17 27 16 89 -18 35 -20 69
-36 77 -36 7 0 56 39 108 87 175 159 355 318 395 349 22 17 123 76 225 131
102 55 212 115 245 133 75 40 675 309 693 310 7 0 12 -12 12 -29z m-2919 -153
c17 -13 35 -33 40 -45 4 -12 38 -37 81 -59 39 -21 236 -160 437 -307 201 -148
370 -271 376 -273 5 -2 39 10 75 25 68 31 78 30 134 -12 18 -13 16 -16 -43
-51 -34 -20 -64 -36 -67 -36 -3 0 -123 69 -267 154 -144 84 -390 228 -547 318
-157 91 -311 181 -343 201 l-58 35 63 35 c35 20 69 36 76 37 7 0 27 -10 43
-22z m249 -338 c228 -134 492 -288 585 -342 94 -55 174 -103 178 -107 4 -4 7
-45 5 -90 l-3 -82 -310 181 c-170 99 -313 180 -317 180 -39 0 38 -52 310 -210
l317 -185 3 -169 c2 -158 1 -168 -15 -162 -10 4 -285 163 -610 353 l-593 345
0 104 c0 57 3 104 7 104 4 0 84 -45 177 -99 194 -113 206 -119 206 -99 0 7
-88 64 -195 127 l-195 113 0 39 c0 23 5 39 12 39 6 0 69 -34 139 -75 119 -70
165 -89 157 -65 -1 5 -70 49 -153 97 l-150 88 -3 84 c-3 76 -1 83 15 79 10 -3
205 -114 433 -248z m498 -110 c155 -85 282 -158 282 -161 0 -11 -79 -42 -94
-36 -14 6 -460 330 -481 350 -18 18 9 3 293 -153z m2172 97 l0 -52 -930 -538
c-511 -295 -932 -537 -935 -537 -3 0 -5 25 -3 56 l3 55 924 535 c509 294 928
534 933 534 4 0 8 -24 8 -53z m-2503 -669 l603 -351 0 -54 c0 -29 -3 -53 -6
-53 -4 0 -279 158 -610 352 l-604 352 0 53 c0 29 3 53 7 53 4 0 278 -158 610
-352z"/>
<path d="M2185 3090 c-49 -38 -91 -75 -93 -82 -1 -8 183 -115 458 -267 l460
-253 96 71 c52 40 94 77 92 83 -3 9 -519 299 -833 468 l-90 49 -90 -69z m542
-213 c232 -128 423 -235 423 -238 0 -9 -131 -109 -143 -109 -16 0 -867 471
-867 480 0 16 135 109 150 104 8 -3 205 -109 437 -237z"/>
<path d="M1962 2910 c5 -15 280 -170 291 -163 19 11 -2 27 -123 93 -137 76
-176 92 -168 70z"/>
<path d="M1865 2840 c-6 -9 6 -18 78 -58 44 -25 57 -27 57 -9 0 6 -27 27 -59
45 -66 36 -67 36 -76 22z"/>
<path d="M1682 2688 c5 -14 263 -158 283 -158 36 0 6 23 -123 94 -137 75 -167
87 -160 64z"/>
<path d="M1580 2618 c0 -7 26 -26 57 -43 74 -39 73 -39 73 -22 0 8 -25 29 -55
46 -60 34 -75 38 -75 19z"/>
<path d="M1450 2518 c0 -13 95 -68 118 -68 26 0 9 20 -43 49 -60 34 -75 38
-75 19z"/>
<path d="M1760 2518 c1 -18 411 -241 422 -230 5 5 3 13 -4 19 -23 19 -397 223
-407 223 -6 0 -11 -6 -11 -12z"/>
<path d="M2015 2510 c-3 -5 5 -16 17 -23 50 -32 391 -217 398 -217 40 0 -10
35 -189 134 -116 64 -212 116 -215 116 -3 0 -7 -4 -11 -10z"/>
<path d="M1355 2449 c-9 -14 -15 -10 121 -85 132 -73 135 -74 141 -58 2 7 -45
39 -104 72 -156 86 -151 84 -158 71z"/>
<path d="M1620 2426 c0 -7 127 -83 283 -169 315 -174 317 -175 317 -155 0 11
-574 338 -594 338 -3 0 -6 -6 -6 -14z"/>
<path d="M1252 2369 c6 -18 471 -270 480 -261 13 13 5 18 -236 151 -209 116
-252 135 -244 110z"/>
<path d="M1685 2270 c-4 -7 -3 -15 1 -20 19 -17 578 -320 591 -320 38 0 -9 31
-244 161 -142 78 -277 153 -300 166 -29 17 -43 20 -48 13z"/>
<path d="M2240 2251 c0 -11 107 -71 127 -71 27 0 11 19 -42 49 -55 31 -85 39
-85 22z"/>
<path d="M2486 2251 c-7 -11 7 -23 61 -50 46 -23 63 -26 63 -12 0 9 -100 71
-113 71 -3 0 -8 -4 -11 -9z"/>
<path d="M1040 2207 c0 -15 234 -152 281 -164 54 -15 3 25 -121 94 -162 90
-160 89 -160 70z"/>
<path d="M942 2128 c5 -16 119 -78 130 -72 14 9 -1 23 -55 54 -55 32 -81 38
-75 18z"/>
<path d="M2260 2070 c0 -9 97 -70 113 -70 4 0 7 7 7 15 0 8 -22 26 -50 40 -53
27 -70 31 -70 15z"/>
<path d="M2815 1753 c-253 -146 -462 -267 -464 -270 -3 -2 0 -8 5 -13 12 -12
934 516 942 538 2 6 -2 12 -10 12 -7 0 -220 -120 -473 -267z"/>
<path d="M2720 1574 c-250 -145 -455 -269 -455 -274 0 -6 4 -11 9 -12 4 -1
215 117 467 262 403 233 495 293 447 289 -7 0 -218 -120 -468 -265z"/>
<path d="M685 1530 c-4 -6 -5 -14 -2 -16 11 -12 260 -154 268 -154 5 0 9 6 9
13 0 6 -46 39 -103 71 -56 33 -116 68 -134 78 -22 13 -33 16 -38 8z"/>
</g>
</svg>
